<?xml version="1.0" encoding="UTF-8"?>
<svg version="1.1" xmlns="http://www.w3.org/2000/svg" width="345" height="51">
<path d="M0 0 C113.85 0 227.7 0 345 0 C345 16.83 345 33.66 345 51 C231.15 51 117.3 51 0 51 C0 34.17 0 17.34 0 0 Z " fill="#FDFBFB" transform="translate(0,0)"/>
<path d="M0 0 C6.18586902 3.81910174 10.29648344 9.53866888 12.4375 16.4375 C13.47412645 24.2697887 11.57056216 31.07631114 7.375 37.6875 C3.18653632 42.16352984 -2.33539607 44.96239859 -8.375 45.8515625 C-15.98202453 46.08399936 -21.58947931 44.49574509 -27.8125 40.1875 C-33.32615066 34.67384934 -35.66465442 28.93707391 -35.875 21.1875 C-35.77847503 14.58870202 -34.25546812 10.22979891 -29.65625 5.4609375 C-21.46869778 -1.96285052 -10.60993182 -4.80022158 0 0 Z " fill="#FE3434" transform="translate(38.5625,3.5625)"/>
<path d="M0 0 C21 0 21 0 31 1 C31 1.33 31 1.66 31 2 C29.83984375 2.02126953 29.83984375 2.02126953 28.65625 2.04296875 C21.56930046 2.3674949 16.3449201 3.13124205 11 8 C5.46191493 14.21671257 3.69332033 18.82418598 3.78125 27.14453125 C4.25912935 33.38256354 6.55606665 38.55606665 11 43 C16.6642937 47.04592407 22.1678681 48.06104516 29 49 C25.50663182 51.32891212 24.13992135 51.23551143 20.01953125 51.1953125 C18.97128174 51.19031738 17.92303223 51.18532227 16.84301758 51.18017578 C15.51294678 51.16196777 14.18287598 51.14375977 12.8125 51.125 C8.584375 51.08375 4.35625 51.0425 0 51 C0 34.17 0 17.34 0 0 Z " fill="#FFFAFA" transform="translate(0,0)"/>
<path d="M0 0 C13.31819605 -0.49326652 13.31819605 -0.49326652 16.4296875 1.7578125 C18.96147571 5.37285338 18.4194426 7.6657598 18 12 C17.34 12.66 16.68 13.32 16 14 C16.38766305 17.58588324 17.58566252 20.69987921 19 24 C17.02 24 15.04 24 13 24 C12.75765625 23.43410156 12.5153125 22.86820313 12.265625 22.28515625 C11.93046875 21.55167969 11.5953125 20.81820312 11.25 20.0625 C10.92515625 19.33160156 10.6003125 18.60070312 10.265625 17.84765625 C8.97377317 15.52359666 8.97377317 15.52359666 5 15 C5 17.97 5 20.94 5 24 C3.35 24 1.7 24 0 24 C0 16.08 0 8.16 0 0 Z " fill="#FF3737" transform="translate(240,13)"/>
<path d="M0 0 C2.64 0 5.28 0 8 0 C9.33852796 3.62310328 10.66993718 7.24878144 12 10.875 C12.3815625 11.90753906 12.763125 12.94007812 13.15625 14.00390625 C13.5171875 14.99003906 13.878125 15.97617187 14.25 16.9921875 C14.58515625 17.90339355 14.9203125 18.81459961 15.265625 19.75341797 C16 22 16 22 16 24 C14.02 24 12.04 24 10 24 C9.67 22.02 9.34 20.04 9 18 C6.03 18.33 3.06 18.66 0 19 C-0.99 21.475 -0.99 21.475 -2 24 C-3.65 24 -5.3 24 -7 24 C-5.40554307 15.73781407 -2.73981931 7.93711014 0 0 Z " fill="#101010" transform="translate(66,13)"/>
<path d="M0 0 C0.77988281 -0.03738281 1.55976563 -0.07476563 2.36328125 -0.11328125 C5.67475791 0.49335901 6.75113736 1.57700357 8.6875 4.3125 C9.078125 7.765625 9.078125 7.765625 8.9375 11.5625 C8.90140625 12.82578125 8.8653125 14.0890625 8.828125 15.390625 C8.75851562 16.83695313 8.75851562 16.83695313 8.6875 18.3125 C6.35416667 18.3125 4.02083333 18.3125 1.6875 18.3125 C0.553125 18.374375 -0.58125 18.43625 -1.75 18.5 C-5.3125 18.3125 -5.3125 18.3125 -7.3125 17.1875 C-8.3125 15.3125 -8.3125 15.3125 -8.25 12.25 C-7.3125 9.3125 -7.3125 9.3125 -5.625 7.9375 C-2.78518254 7.16998177 -0.24064973 7.17940228 2.6875 7.3125 C2.3575 6.3225 2.0275 5.3325 1.6875 4.3125 C-2.7675 4.8075 -2.7675 4.8075 -7.3125 5.3125 C-4.72979011 0.14708022 -4.72979011 0.14708022 0 0 Z " fill="#FF4040" transform="translate(289.3125,18.6875)"/>
<path d="M0 0 C0.77988281 -0.03738281 1.55976563 -0.07476563 2.36328125 -0.11328125 C5.67475791 0.49335901 6.75113736 1.57700357 8.6875 4.3125 C9.078125 7.765625 9.078125 7.765625 8.9375 11.5625 C8.90140625 12.82578125 8.8653125 14.0890625 8.828125 15.390625 C8.75851563 16.83695313 8.75851563 16.83695313 8.6875 18.3125 C6.35416667 18.3125 4.02083333 18.3125 1.6875 18.3125 C0.553125 18.374375 -0.58125 18.43625 -1.75 18.5 C-5.3125 18.3125 -5.3125 18.3125 -7.3125 17.1875 C-8.3125 15.3125 -8.3125 15.3125 -8.25 12.25 C-7.3125 9.3125 -7.3125 9.3125 -5.625 7.9375 C-2.78518254 7.16998177 -0.24064973 7.17940228 2.6875 7.3125 C2.3575 6.3225 2.0275 5.3325 1.6875 4.3125 C-2.7675 4.8075 -2.7675 4.8075 -7.3125 5.3125 C-4.72979011 0.14708022 -4.72979011 0.14708022 0 0 Z " fill="#141414" transform="translate(220.3125,18.6875)"/>
<path d="M0 0 C1.65 0 3.3 0 5 0 C5.33 2.31 5.66 4.62 6 7 C6.33 6.67 6.66 6.34 7 6 C13.23490601 5.53815511 13.23490601 5.53815511 15.71484375 7.03515625 C17.70058694 10.07111012 17.31480828 13.19141872 17.1875 16.6875 C17.16719727 17.7403418 17.16719727 17.7403418 17.14648438 18.81445312 C17.11120182 20.54329829 17.05739583 22.27174765 17 24 C15.35 24 13.7 24 12 24 C11.67 19.71 11.34 15.42 11 11 C9.35 11 7.7 11 6 11 C5.67 15.29 5.34 19.58 5 24 C3.35 24 1.7 24 0 24 C0 16.08 0 8.16 0 0 Z " fill="#050505" transform="translate(123,13)"/>
<path d="M0 0 C3 2.1875 3 2.1875 5 5 C5 6.65 5 8.3 5 10 C0.71 10 -3.58 10 -8 10 C-7.01 11.485 -7.01 11.485 -6 13 C-3.56306689 13.36416047 -3.56306689 13.36416047 -0.875 13.1875 C0.49011719 13.14689453 0.49011719 13.14689453 1.8828125 13.10546875 C2.58148438 13.07066406 3.28015625 13.03585938 4 13 C2.125 16.875 2.125 16.875 1 18 C-3.3982667 18.54420744 -6.87803353 18.84147485 -10.5 16.125 C-13.02498318 12.5479405 -13.3446536 10.39433343 -13 6 C-10.06486559 -0.00368402 -6.57163165 -1.11830825 0 0 Z " fill="#FF3C3C" transform="translate(274,19)"/>
<path d="M0 0 C0.79148438 -0.02578125 1.58296875 -0.0515625 2.3984375 -0.078125 C4.625 0.25 4.625 0.25 6.40234375 1.28515625 C8.30157044 4.33726815 7.93894991 7.46499098 7.8125 10.9375 C7.79219727 11.9903418 7.79219727 11.9903418 7.77148438 13.06445312 C7.73620182 14.79329829 7.68239583 16.52174765 7.625 18.25 C5.33390403 18.33075665 3.04200733 18.38907731 0.75 18.4375 C-1.16425781 18.48970703 -1.16425781 18.48970703 -3.1171875 18.54296875 C-4.19226563 18.44628906 -5.26734375 18.34960938 -6.375 18.25 C-8.52262184 15.02856724 -8.936068 13.9904533 -8.375 10.25 C-6.8125 8.4375 -6.8125 8.4375 -4.375 7.25 C-0.625 7.0625 -0.625 7.0625 2.625 7.25 C2.295 6.26 1.965 5.27 1.625 4.25 C-2.83 4.745 -2.83 4.745 -7.375 5.25 C-4.79656863 0.09313725 -4.79656863 0.09313725 0 0 Z " fill="#0C0C0C" transform="translate(180.375,18.75)"/>
<path d="M0 0 C0.79148437 -0.02578125 1.58296875 -0.0515625 2.3984375 -0.078125 C4.625 0.25 4.625 0.25 6.40234375 1.28515625 C8.30157044 4.33726815 7.93894991 7.46499098 7.8125 10.9375 C7.79219727 11.9903418 7.79219727 11.9903418 7.77148438 13.06445312 C7.73620182 14.79329829 7.68239583 16.52174765 7.625 18.25 C5.33390403 18.33075665 3.04200733 18.38907731 0.75 18.4375 C-1.16425781 18.48970703 -1.16425781 18.48970703 -3.1171875 18.54296875 C-4.19226563 18.44628906 -5.26734375 18.34960938 -6.375 18.25 C-8.52262184 15.02856724 -8.936068 13.9904533 -8.375 10.25 C-6.8125 8.4375 -6.8125 8.4375 -4.375 7.25 C-0.625 7.0625 -0.625 7.0625 2.625 7.25 C2.295 6.26 1.965 5.27 1.625 4.25 C-2.83 4.745 -2.83 4.745 -7.375 5.25 C-4.79656863 0.09313725 -4.79656863 0.09313725 0 0 Z " fill="#0C0C0C" transform="translate(92.375,18.75)"/>
<path d="M0 0 C0.68798828 2.26220703 0.68798828 2.26220703 1 5 C-0.18408203 6.96044922 -0.18408203 6.96044922 -2.0078125 8.8046875 C-2.66523437 9.46984375 -3.32265625 10.135 -4 10.8203125 C-4.70125 11.49835937 -5.4025 12.17640625 -6.125 12.875 C-6.80304687 13.57625 -7.48109375 14.2775 -8.1796875 15 C-8.84484375 15.65742188 -9.51 16.31484375 -10.1953125 16.9921875 C-11.10821045 17.89493408 -11.10821045 17.89493408 -12.03955078 18.81591797 C-14 20 -14 20 -16.59570312 19.79248047 C-19.57768931 18.80958778 -21.14853519 17.45163435 -23.375 15.25 C-24.08398438 14.57453125 -24.79296875 13.8990625 -25.5234375 13.203125 C-27 11 -27 11 -26.7265625 8.234375 C-26.48679687 7.49703125 -26.24703125 6.7596875 -26 6 C-21.68607774 6.4793247 -19.83430453 7.7457985 -17 11 C-12.34307848 9.07372792 -9.57310897 5.53998474 -6.21875 1.8984375 C-4 0 -4 0 0 0 Z " fill="#F2EDED" transform="translate(40,15)"/>
<path d="M0 0 C1.65 0 3.3 0 5 0 C6.32 3.3 7.64 6.6 9 10 C9.99 6.7 10.98 3.4 12 0 C13.98 0 15.96 0 18 0 C16.93663604 3.42320709 15.8458916 6.83708046 14.75 10.25 C14.44964844 11.21808594 14.14929688 12.18617187 13.83984375 13.18359375 C13.53691406 14.11816406 13.23398438 15.05273438 12.921875 16.015625 C12.64956055 16.87446289 12.37724609 17.73330078 12.09667969 18.61816406 C10.80299277 21.42787234 9.38879911 23.04573162 7 25 C3.75 25.25 3.75 25.25 1 25 C1.3125 23.0625 1.3125 23.0625 2 21 C2.99 20.67 3.98 20.34 5 20 C4.50475027 15.24560258 3.46768979 11.30130514 1.69921875 6.8671875 C0.85569824 4.61465787 0.37087444 2.3735964 0 0 Z " fill="#0F0F0F" transform="translate(152,19)"/>
<path d="M0 0 C1.98 0 3.96 0 6 0 C6.99 3.3 7.98 6.6 9 10 C9.33 10 9.66 10 10 10 C10.99 6.7 11.98 3.4 13 0 C14.65 0 16.3 0 18 0 C12.49039785 21.57927509 12.49039785 21.57927509 8 25 C4.8125 25.1875 4.8125 25.1875 2 25 C2 23.68 2 22.36 2 21 C3.32 21 4.64 21 6 21 C4.29977612 13.87352969 2.42080258 6.9165788 0 0 Z " fill="#FF3A3A" transform="translate(322,19)"/>
<path d="M0 0 C2.33333333 0 4.66666667 0 7 0 C8.134375 -0.061875 9.26875 -0.12375 10.4375 -0.1875 C14 0 14 0 15.7109375 1.03125 C17.70012168 4.06927675 17.31492912 7.18810041 17.1875 10.6875 C17.16719727 11.7403418 17.16719727 11.7403418 17.14648438 12.81445312 C17.11120182 14.54329829 17.05739583 16.27174765 17 18 C15.35 18 13.7 18 12 18 C11.67 13.71 11.34 9.42 11 5 C9.35 5 7.7 5 6 5 C5.67 9.29 5.34 13.58 5 18 C3.35 18 1.7 18 0 18 C0 12.06 0 6.12 0 0 Z " fill="#070707" transform="translate(192,19)"/>
<path d="M0 0 C0.7734375 0.00386719 1.546875 0.00773437 2.34375 0.01171875 C4.5 0.3125 4.5 0.3125 7.5 2.3125 C7.5 3.3025 7.5 4.2925 7.5 5.3125 C4.53 4.9825 1.56 4.6525 -1.5 4.3125 C-1.5 4.9725 -1.5 5.6325 -1.5 6.3125 C-0.86191406 6.51746094 -0.22382812 6.72242188 0.43359375 6.93359375 C1.25988281 7.20300781 2.08617188 7.47242188 2.9375 7.75 C3.76121094 8.01683594 4.58492187 8.28367187 5.43359375 8.55859375 C7.5 9.3125 7.5 9.3125 8.5 10.3125 C8.8125 12.6875 8.8125 12.6875 8.5 15.3125 C6.67779108 17.61006777 5.22259682 18.21728417 2.3359375 18.59765625 C-3.84338997 18.82912943 -3.84338997 18.82912943 -6.27734375 16.9140625 C-7.5 15.3125 -7.5 15.3125 -7.5 13.3125 C-4.00765756 13.21271879 -0.90562852 13.53407062 2.5 14.3125 C2.5 13.6525 2.5 12.9925 2.5 12.3125 C-0.47 11.3225 -3.44 10.3325 -6.5 9.3125 C-7.1875 6.5 -7.1875 6.5 -7.5 3.3125 C-5.34412422 0.29286943 -3.61523729 -0.07833014 0 0 Z " fill="#0C0C0C" transform="translate(111.5,18.6875)"/>
<path d="M0 0 C1.65 0 3.3 0 5 0 C5 1.32 5 2.64 5 4 C5.99 4 6.98 4 8 4 C8 4.99 8 5.98 8 7 C7.01 7 6.02 7 5 7 C5 10.63 5 14.26 5 18 C5.99 18 6.98 18 8 18 C8 19.32 8 20.64 8 22 C5.125 22.125 5.125 22.125 2 22 C0 20 0 20 -0.1953125 16.9609375 C-0.16050781 15.18589844 -0.16050781 15.18589844 -0.125 13.375 C-0.10695313 12.18648437 -0.08890625 10.99796875 -0.0703125 9.7734375 C-0.04710937 8.85820312 -0.02390625 7.94296875 0 7 C-0.99 7 -1.98 7 -3 7 C-3 6.01 -3 5.02 -3 4 C-2.01 4 -1.02 4 0 4 C0 2.68 0 1.36 0 0 Z " fill="#FF3737" transform="translate(312,15)"/>
<path d="M0 0 C1.65 0 3.3 0 5 0 C5 8.25 5 16.5 5 25 C3.35 25 1.7 25 0 25 C0 16.75 0 8.5 0 0 Z " fill="#FF4646" transform="translate(302,12)"/>
<path d="M0 0 C1.65 0 3.3 0 5 0 C5 5.94 5 11.88 5 18 C3.35 18 1.7 18 0 18 C0 12.06 0 6.12 0 0 Z " fill="#010101" transform="translate(144,19)"/>
<path d="M0 0 C2.33294775 -0.04241723 4.66702567 -0.04092937 7 0 C8 1 8 1 8.125 3.5 C8 6 8 6 7 7 C4.66702567 7.04092937 2.33294775 7.04241723 0 7 C0 4.69 0 2.38 0 0 Z " fill="#FFF1F1" transform="translate(245,17)"/>
<path d="M0 0 C4.29 0 8.58 0 13 0 C12.67 0.99 12.34 1.98 12 3 C8.7 3.33 5.4 3.66 2 4 C1.34 2.68 0.68 1.36 0 0 Z " fill="#FFE3E3" transform="translate(266,29)"/>
<path d="M0 0 C2.5654594 2.5654594 2.54046087 4.47686668 3 8 C1.35 8 -0.3 8 -2 8 C-1.125 1.125 -1.125 1.125 0 0 Z " fill="#E3E3E3" transform="translate(70,19)"/>
<path d="M0 0 C-0.33 1.65 -0.66 3.3 -1 5 C-2.65 4.67 -4.3 4.34 -6 4 C-6 3.01 -6 2.02 -6 1 C-4 0 -4 0 0 0 Z " fill="#FFE3E3" transform="translate(292,29)"/>
<path d="M0 0 C-0.33 1.65 -0.66 3.3 -1 5 C-2.65 4.67 -4.3 4.34 -6 4 C-6 3.01 -6 2.02 -6 1 C-4 0 -4 0 0 0 Z " fill="#DEDEDE" transform="translate(223,29)"/>
<path d="M0 0 C0 1.32 0 2.64 0 4 C-5 3 -5 3 -10 2 C-10 1.67 -10 1.34 -10 1 C-6.59437148 0.22157062 -3.49234244 -0.09978121 0 0 Z " fill="#CCCCCC" transform="translate(114,30)"/>
<path d="M0 0 C1.2065625 0.0309375 1.2065625 0.0309375 2.4375 0.0625 C2.1075 1.3825 1.7775 2.7025 1.4375 4.0625 C0.1175 4.3925 -1.2025 4.7225 -2.5625 5.0625 C-3.125 3.125 -3.125 3.125 -3.5625 1.0625 C-2.5625 0.0625 -2.5625 0.0625 0 0 Z " fill="#E5E5E5" transform="translate(180.5625,28.9375)"/>
<path d="M0 0 C1.2065625 0.0309375 1.2065625 0.0309375 2.4375 0.0625 C2.1075 1.3825 1.7775 2.7025 1.4375 4.0625 C0.1175 4.3925 -1.2025 4.7225 -2.5625 5.0625 C-3.125 3.125 -3.125 3.125 -3.5625 1.0625 C-2.5625 0.0625 -2.5625 0.0625 0 0 Z " fill="#E5E5E5" transform="translate(92.5625,28.9375)"/>
<path d="M0 0 C1.65 0.33 3.3 0.66 5 1 C5.33 1.99 5.66 2.98 6 4 C3.36 4 0.72 4 -2 4 C-1.34 2.68 -0.68 1.36 0 0 Z " fill="#FFE3E3" transform="translate(268,22)"/>
<path d="M0 0 C4.75 0.75 4.75 0.75 7 3 C6.67 3.66 6.34 4.32 6 5 C3.69 4.34 1.38 3.68 -1 3 C-0.67 2.01 -0.34 1.02 0 0 Z " fill="#D5D5D5" transform="translate(110,22)"/>
<path d="M0 0 C0 0.99 0 1.98 0 3 C-2.875 3.125 -2.875 3.125 -6 3 C-6.66 2.34 -7.32 1.68 -8 1 C-4.93251126 -0.86240388 -3.40254489 -1.2151946 0 0 Z " fill="#FFECEC" transform="translate(292,23)"/>
<path d="M0 0 C0 0.99 0 1.98 0 3 C-2.875 3.125 -2.875 3.125 -6 3 C-6.66 2.34 -7.32 1.68 -8 1 C-4.93251126 -0.86240388 -3.40254489 -1.2151946 0 0 Z " fill="#E9E9E9" transform="translate(223,23)"/>
<path d="M0 0 C0 0.99 0 1.98 0 3 C-2.875 3.125 -2.875 3.125 -6 3 C-6.66 2.34 -7.32 1.68 -8 1 C-4.93251126 -0.86240388 -3.40254489 -1.2151946 0 0 Z " fill="#E7E7E7" transform="translate(183,23)"/>
<path d="M0 0 C0 0.99 0 1.98 0 3 C-2.875 3.125 -2.875 3.125 -6 3 C-6.66 2.34 -7.32 1.68 -8 1 C-4.93251126 -0.86240388 -3.40254489 -1.2151946 0 0 Z " fill="#E7E7E7" transform="translate(95,23)"/>
<path d="M0 0 C1.98 0.495 1.98 0.495 4 1 C4 2.32 4 3.64 4 5 C2.35 4.67 0.7 4.34 -1 4 C-0.67 2.68 -0.34 1.36 0 0 Z " fill="#1B1B1B" transform="translate(145,11)"/>
</svg>
